#!OML:ASF G:\JayActor3\Patient Classification 1\Patient 1\Session 6\male.ASF
:FULLY-SPECIFIED
:DEGREES
545
root 36.0912 15.7567 -3.83122 -176.511 -25.8178 -185.215
lowerback 4.8018 -1.63853 -2.18912
upperback 2.59342 -2.5872 -4.61961
thorax -0.143344 -1.40952 -3.40274
lowerneck 7.99106 10.0869 6.74142
upperneck -14.7227 13.8994 -3.34878
head -5.03322 6.53219 -2.93215
rclavicle 1.0138e-014 1.51076e-014
rhumerus -41.6241 18.9959 -103.651
rradius 71.0519
rwrist 7.1054
rhand -28.2288 -8.16135
rfingers 7.12502
rthumb -1.60686 -38.135
lclavicle 1.0138e-014 1.51076e-014
lhumerus -28.829 -6.64182 82.3211
lradius 76.619
lwrist 1.28662
lhand -41.9864 -12.4664
lfingers 7.12502
lthumb -14.8821 16.979
rfemur -50.8842 8.59207 17.1626
rtibia 66.9415
rfoot -3.70142 -8.96435
rtoes -14.705
lfemur 2.30398 20.0171 -29.1325
ltibia 18.5664
lfoot -20.1813 0.0572326
ltoes -5.69406
546
root 36.0317 15.7614 -3.93033 -176.416 -25.8347 -185.471
lowerback 4.77089 -1.71094 -2.438
upperback 2.60923 -2.69868 -4.65344
thorax -0.105246 -1.47018 -3.2942
lowerneck 8.04795 10.1706 6.77785
upperneck -14.6859 14.0167 -3.406
head -5.01827 6.59457 -2.96078
rclavicle 4.02539e-014 2.14687e-014
rhumerus -41.6882 19.2081 -103.634
rradius 71.4523
rwrist 7.09409
rhand -28.1657 -8.12078
rfingers 7.12502
rthumb -1.54598 -38.0949
lclavicle 4.02539e-014 2.14687e-014
lhumerus -28.8846 -6.61924 82.4351
lradius 75.8389
lwrist 1.23574
lhand -42.7746 -13.8552
lfingers 7.12502
lthumb -15.6413 15.5325
rfemur -51.0615 8.51503 17.0277
rtibia 65.0121
rfoot -2.85084 -9.64395
rtoes -13.9214
lfemur 3.51952 20.3781 -29.1321
ltibia 17.2652
lfoot -19.767 -0.424742
ltoes -6.16976
547
root 35.9721 15.7666 -4.02994 -176.299 -25.8352 -185.721
lowerback 4.7173 -1.77532 -2.68012
upperback 2.61813 -2.79728 -4.68468
thorax -0.0604779 -1.52415 -3.18844
lowerneck 8.10092 10.2509 6.81492
upperneck -14.6567 14.1284 -3.4667
head -5.00489 6.65402 -2.99031
rclavicle -1.69961e-014 -2.14687e-014
rhumerus -41.7462 19.4181 -103.616
rradius 71.8513
rwrist 7.06845
rhand -28.0789 -8.10416
rfingers 7.12502
rthumb -1.46212 -38.0789
lclavicle -1.69961e-014 -2.14687e-014
lhumerus -28.9465 -6.61222 82.5548
lradius 75.0558
lwrist 1.14624
lhand -43.5229 -15.1893
lfingers 7.12502
lthumb -16.3619 14.1405
rfemur -51.2121 8.45036 16.8868
rtibia 63.0368
rfoot -1.80946 -10.4104
rtoes -13.02
lfemur 4.75944 20.775 -29.1224
ltibia 15.8745
lfoot -19.2913 -0.930257
ltoes -6.685
548
root 35.9127 15.7718 -4.13018 -176.164 -25.8024 -185.943
lowerback 4.63484 -1.82747 -2.90067
upperback 2.6164 -2.87536 -4.7051
thorax -0.00961095 -1.56706 -3.08577
lowerneck 8.15181 10.3271 6.8477
upperneck -14.633 14.2331 -3.53153
head -4.99307 6.71039 -3.02022
rclavicle 5.76476e-014 5.32743e-014
rhumerus -41.7992 19.6248 -103.596
rradius 72.2497
rwrist 7.03994
rhand -27.9946 -8.11607
rfingers 7.12502
rthumb -1.3807 -38.0913
lclavicle 5.76476e-014 5.32743e-014
lhumerus -29.0171 -6.64002 82.6873
lradius 74.2793
lwrist 1.0888
lhand -44.2387 -16.4221
lfingers 7.12502
lthumb -17.051 12.8496
rfemur -51.3472 8.44407 16.7532
rtibia 61.017
rfoot -0.602286 -11.2824
rtoes -12.0349
lfemur 6.01212 21.2373 -29.0791
ltibia 14.4005
lfoot -18.759 -1.46752
ltoes -7.23641
549
root 35.8531 15.778 -4.23115 -176.018 -25.7887 -186.125
lowerback 4.52587 -1.8852 -3.07842
upperback 2.60955 -2.95509 -4.71188
thorax 0.0499034 -1.60965 -2.9941
lowerneck 8.19891 10.399 6.87934
upperneck -14.6175 14.3301 -3.60586
head -4.98275 6.76338 -3.05251
rclavicle -1.89839e-014 -2.70347e-014
rhumerus -41.8452 19.8238 -103.571
rradius 72.647
rwrist 7.01618
rhand -27.9278 -8.1602
rfingers 7.12502
rthumb -1.3162 -38.1359
lclavicle -1.89839e-014 -2.70347e-014
lhumerus -29.1031 -6.69708 82.8363
lradius 73.5274
lwrist 1.07961
lhand -44.8934 -17.5185
lfingers 7.12502
lthumb -17.6811 11.6976
rfemur -51.451 8.45748 16.6342
rtibia 58.9539
rfoot 0.724407 -12.2566
rtoes -11.0378
lfemur 7.29356 21.7338 -28.9831
ltibia 12.8255
lfoot -18.165 -2.04955
ltoes -7.86319
550
root 35.7937 15.7852 -4.33271 -175.856 -25.8013 -186.27
lowerback 4.39219 -1.95042 -3.2152
upperback 2.59489 -3.03944 -4.70694
thorax 0.114111 -1.65335 -2.9142
lowerneck 8.23778 10.4708 6.9085
upperneck -14.6096 14.4255 -3.68156
head -4.97343 6.81541 -3.08454
rclavicle 1.59028e-014 -3.97569e-015
rhumerus -41.8817 20.0041 -103.54
rradius 73.0371
rwrist 7.01151
rhand -27.8835 -8.19681
rfingers 7.12502
rthumb -1.27336 -38.1728
lclavicle 1.59028e-014 -3.97569e-015
lhumerus -29.2013 -6.78812 82.9959
lradius 72.8011
lwrist 1.14696
lhand -45.4872 -18.4843
lfingers 7.12502
lthumb -18.2524 10.6794
rfemur -51.529 8.49048 16.5182
rtibia 56.8527
rfoot 2.11775 -13.3206
rtoes -10.0528
lfemur 8.62373 22.2402 -28.8444
ltibia 11.1025
lfoot -17.486 -2.67408
ltoes -8.5218
551
root 35.7341 15.7933 -4.4349 -175.672 -25.8377 -186.403
lowerback 4.23931 -2.02164 -3.32847
upperback 2.57506 -3.12835 -4.6966
thorax 0.183118 -1.69869 -2.84279
lowerneck 8.27644 10.5376 6.93042
upperneck -14.6153 14.5122 -3.76175
head -4.96879 6.86328 -3.11709
rclavicle 6.65929e-015 -1.90833e-014
rhumerus -41.9093 20.1684 -103.503
rradius 73.4213
rwrist 7.02923
rhand -27.8723 -8.24205
rfingers 7.12502
rthumb -1.26259 -38.2181
lclavicle 6.65929e-015 -1.90833e-014
lhumerus -29.3092 -6.91142 83.1664
lradius 72.097
lwrist 1.29057
lhand -46.0178 -19.3279
lfingers 7.12502
lthumb -18.7628 9.78717
rfemur -51.5767 8.53478 16.3808
rtibia 54.7221
rfoot 3.54199 -14.4341
rtoes -9.13839
lfemur 10.0288 22.0854 -28.8174
ltibia 9.10853
lfoot -16.6176 -2.67281
ltoes -9.23855
552
root 35.6744 15.8024 -4.53747 -175.473 -25.9043 -186.53
lowerback 4.08147 -2.10093 -3.42278
upperback 2.551 -3.22617 -4.6835
thorax 0.249881 -1.74799 -2.77931
lowerneck 8.30613 10.6005 6.95233
upperneck -14.6238 14.5918 -3.84906
head -4.9632 6.90805 -3.15094
rclavicle 8.17005e-014 -1.27222e-014
rhumerus -41.9283 20.3155 -103.46
rradius 73.796
rwrist 7.07234
rhand -27.8895 -8.28408
rfingers 7.12502
rthumb -1.27921 -38.26
lclavicle 8.17005e-014 -1.27222e-014
lhumerus -29.4236 -7.04884 83.3386
lradius 71.4089
lwrist 1.4595
lhand -46.4782 -20.0802
lfingers 7.12502
lthumb -19.2056 8.9915
rfemur -51.5847 8.5761 16.2161
rtibia 52.5687
rfoot 4.95288 -15.5645
rtoes -8.26997
lfemur 11.6942 21.8943 -28.8296
ltibia 6.57094
lfoot -15.4683 -2.68892
ltoes -9.91998
553
root 35.6144 15.8129 -4.64026 -175.266 -26.0115 -186.656
lowerback 3.92977 -2.19061 -3.4978
upperback 2.52497 -3.3368 -4.66698
thorax 0.310426 -1.80324 -2.72274
lowerneck 8.32986 10.6583 6.96673
upperneck -14.6337 14.6624 -3.94102
head -4.95759 6.94915 -3.1844
rclavicle -4.41302e-014 -6.75868e-014
rhumerus -41.9453 20.4496 -103.411
rradius 74.1679
rwrist 7.12735
rhand -27.9173 -8.33002
rfingers 7.12502
rthumb -1.30608 -38.3058
lclavicle -4.41302e-014 -6.75868e-014
lhumerus -29.5419 -7.19425 83.5165
lradius 70.7256
lwrist 1.61956
lhand -46.8872 -20.7786
lfingers 7.12502
lthumb -19.5989 8.2535
rfemur -51.5391 8.59429 16.0256
rtibia 50.3999
rfoot 6.33975 -16.6705
rtoes -7.47697
lfemur 14.4603 21.6704 -28.9208
ltibia 1.94648
lfoot -13.3461 -2.7515
ltoes -10.6521
554
root 35.5543 15.8246 -4.7432 -175.079 -26.1615 -186.761
lowerback 3.80463 -2.29011 -3.53807
upperback 2.50217 -3.4599 -4.64154
thorax 0.358107 -1.86397 -2.67516
lowerneck 8.34585 10.7111 6.97769
upperneck -14.6432 14.7237 -4.04178
head -4.9505 6.98666 -3.21905
rclavicle 5.53615e-014 1.02573e-013
rhumerus -41.9596 20.5724 -103.354
rradius 74.5368
rwrist 7.19103
rhand -27.9521 -8.40467
rfingers 7.12502
rthumb -1.33965 -38.3802
lclavicle 5.53615e-014 1.02573e-013
lhumerus -29.6468 -7.33731 83.6871
lradius 70.0269
lwrist 1.68991
lhand -47.222 -21.394
lfingers 7.12502
lthumb -19.9207 7.60498
rfemur -51.4161 8.58845 15.8338
rtibia 48.2215
rfoot 7.66808 -17.742
rtoes -6.67392
lfemur 15.7918 21.4088 -28.977
ltibia 2.54444e-014
lfoot -12.4209 -2.72013
ltoes -11.4352
555
root 35.4938 15.8375 -4.84612 -174.93 -26.358 -186.822
lowerback 3.71744 -2.39991 -3.52435
upperback 2.485 -3.59571 -4.60105
thorax 0.388147 -1.92984 -2.64027
lowerneck 8.35287 10.7578 6.98902
upperneck -14.6497 14.7742 -4.15475
head -4.94041 7.01998 -3.25612
rclavicle -4.87022e-015 -1.27222e-014
rhumerus -41.9756 20.6883 -103.289
rradius 74.9063
rwrist 7.25196
rhand -27.9854 -8.47774
rfingers 7.12502
rthumb -1.37183 -38.4531
lclavicle -4.87022e-015 -1.27222e-014
lhumerus -29.7462 -7.47622 83.8644
lradius 69.3126
lwrist 1.68648
lhand -47.5053 -21.9704
lfingers 7.12502
lthumb -20.193 7.00005
rfemur -51.2027 8.54983 15.6701
rtibia 46.0444
rfoot 8.9075 -18.7752
rtoes -5.8639
lfemur 16.1041 21.1053 -28.9505
ltibia 1.27222e-014
lfoot -12.3557 -2.61929
ltoes -12.2542
556
root 35.4327 15.8516 -4.94888 -174.833 -26.6006 -186.825
lowerback 3.67347 -2.51707 -3.44102
upperback 2.47653 -3.73975 -4.54115
thorax 0.399875 -1.99832 -2.62202
lowerneck 8.34973 10.7965 7.00072
upperneck -14.6552 14.8113 -4.28128
head -4.92784 7.04777 -3.29593
rclavicle 2.96189e-014 -2.14687e-014
rhumerus -41.9893 20.791 -103.207
rradius 75.2734
rwrist 7.3071
rhand -28.0182 -8.54531
rfingers 7.12502
rthumb -1.40353 -38.5204
lclavicle 2.96189e-014 -2.14687e-014
lhumerus -29.8307 -7.61565 84.0514
lradius 68.5744
lwrist 1.60285
lhand -47.739 -22.5068
lfingers 7.12502
lthumb -20.4176 6.43976
rfemur -50.8946 8.50486 15.5402
rtibia 43.8855
rfoot 9.99911 -19.8087
rtoes -4.99913
lfemur 16.4489 20.7663 -28.8622
ltibia 1.59028e-014
lfoot -12.254 -2.49751
ltoes -13.0647
557
root 35.3714 15.8658 -5.05192 -174.785 -26.8343 -186.775
lowerback 3.66487 -2.62345 -3.31423
upperback 2.47349 -3.86866 -4.46149
thorax 0.396195 -2.05818 -2.60632
lowerneck 8.34633 10.828 7.01437
upperneck -14.6675 14.8365 -4.42421
head -4.9164 7.07067 -3.34063
rclavicle 7.65321e-015 -3.02153e-014
rhumerus -42.005 20.8912 -103.113
rradius 75.6387
rwrist 7.34141
rhand -28.0542 -8.60613
rfingers 7.12502
rthumb -1.43823 -38.581
lclavicle 7.65321e-015 -3.02153e-014
lhumerus -29.9105 -7.7507 84.2586
lradius 67.8161
lwrist 1.46773
lhand -47.9213 -23.024
lfingers 7.12502
lthumb -20.5928 5.90374
rfemur -50.5126 8.46986 15.4579
rtibia 41.7742
rfoot 10.9529 -20.8164
rtoes -4.13207
lfemur 16.8221 20.4438 -28.7206
ltibia -9.54166e-015
lfoot -12.1181 -2.35351
ltoes -13.8621
558
root 35.3102 15.8803 -5.15546 -174.767 -27.0614 -186.688
lowerback 3.6772 -2.72051 -3.15988
upperback 2.47514 -3.9844 -4.36687
thorax 0.384964 -2.11083 -2.58989
lowerneck 8.33917 10.8574 7.02952
upperneck -14.6899 14.8568 -4.57716
head -4.9067 7.09133 -3.38847
rclavicle 8.16011e-014 2.70347e-014
rhumerus -42.0147 20.9896 -103.007
rradius 75.9939
rwrist 7.35503
rhand -28.0999 -8.6346
rfingers 7.12502
rthumb -1.48238 -38.6092
lclavicle 8.16011e-014 2.70347e-014
lhumerus -29.9833 -7.87984 84.4831
lradius 67.0393
lwrist 1.2983
lhand -48.0495 -23.5782
lfingers 7.12502
lthumb -20.716 5.33609
rfemur -50.0816 8.4366 15.4092
rtibia 39.7445
rfoot 11.7434 -21.8028
rtoes -3.27842
lfemur 17.213 20.1324 -28.5444
ltibia 3.81667e-014
lfoot -11.9486 -2.19275
ltoes -14.6179
